<svg width="107" height="28" viewBox="0 0 107 28" fill="none" xmlns="http://www.w3.org/2000/svg">
<g clip-path="url(#clip0_4148_62)">
<path fill-rule="evenodd" clip-rule="evenodd" d="M10.6537 17.0779H16.106L24.0249 0H18.7618L14.6638 10.2362H14.589L14.5319 0H9.8007L5.79505 10.0911H5.75547L5.54442 0H0.320801L1.57394 17.0779H7.00862L10.5218 7.95854H10.5966L10.6537 17.0779ZM37.2775 0H24.1876L21.29 17.0779H34.6129L35.356 12.6853H26.8962L27.2523 10.5747H34.969L35.6594 6.50314H27.9427L28.312 4.3706H36.5344L37.2775 0ZM38.3547 0H43.2354L41.0721 12.6853H48.0633L47.3202 17.0779H35.4483L38.3547 0ZM46.1022 4.3706H50.4244L48.2611 17.0559H51.2944L49.4307 28L57.9477 12.4303H53.8295L55.204 4.3706H59.5438L60.2869 0H46.8453L46.1022 4.3706ZM59.1085 12.87L61.3598 0.118727H106.679L99.7103 12.87H59.1085ZM70.5187 3.75504H64.7938L63.5231 11.2255H69.3535L69.6788 9.30404H65.9766L66.1305 8.38067H69.5074L69.8107 6.59989H66.4339L66.5965 5.66773H70.1933L70.5187 3.75504ZM71.2573 5.43465H73.2008L73.192 5.92271H73.214C73.7021 5.42585 74.2649 5.24997 75.1135 5.24997C76.094 5.24997 76.8855 5.88754 76.6568 7.21543L75.9753 11.2211H73.8911L74.41 8.16518C74.5287 7.49244 74.5287 7.02196 73.9175 7.02196C73.557 7.02196 73.0161 7.38251 72.8622 8.31467L72.3654 11.2211H70.2768L71.2573 5.43025V5.43465ZM81.4848 5.43463H80.3679L80.7021 3.46917L78.3893 4.78827L78.2794 5.43463H77.5538L77.3032 6.92081H78.0287L77.5934 9.45787C77.3208 11.0672 78.2574 11.3618 79.1456 11.3618C79.6029 11.3618 80.0865 11.3046 80.513 11.1859L80.7549 9.74367C80.5922 9.79204 80.4295 9.80963 80.2668 9.80963C79.7348 9.80963 79.6688 9.5634 79.7567 9.02696L80.1173 6.92081H81.2341L81.4848 5.43463ZM86.7567 9.33038C86.1807 10.9661 85.1299 11.3618 83.7272 11.3618C82.052 11.3618 80.9439 10.7814 81.3616 8.31467C81.7442 6.06342 83.1028 5.24997 84.7605 5.24997C86.4182 5.24997 87.3591 6.15575 87.0206 8.31467C86.9854 8.50814 86.9326 8.74118 86.8886 8.91706H83.182C83.1732 9.57221 83.4414 9.84922 84.0394 9.84922C84.4087 9.84922 84.7869 9.69093 84.888 9.33038H86.7567ZM88.2158 5.43468H88.2121L88.2165 5.43029L88.2158 5.43468ZM88.2158 5.43468H90.1424L90.1072 6.08104H90.1292C90.4854 5.65453 90.9866 5.28518 91.8045 5.28518C92.0199 5.28518 92.209 5.32036 92.4025 5.37752L92.0771 7.32539C91.8792 7.24184 91.6989 7.17589 91.2812 7.17589C90.437 7.17589 89.9226 7.67275 89.7071 8.93908L89.3246 11.2211H87.236L88.2158 5.43468ZM95.7398 7.23741L95.7404 7.23302H97.6261C97.7756 5.61053 96.5092 5.24997 95.366 5.24997C94.2888 5.24997 92.7806 5.52698 92.5168 7.1055C92.3453 8.10362 92.9741 8.63126 94.4734 8.94344C95.3968 9.12812 95.5507 9.22925 95.5067 9.49746C95.4584 9.79206 95.111 9.89319 94.7548 9.89319C94.3327 9.89319 94.0381 9.75688 94.1129 9.23804H92.1167C91.8396 10.9661 93.1455 11.3618 94.4383 11.3618C95.731 11.3618 97.2215 11.01 97.5117 9.304C97.6744 8.34545 97.0633 8.02447 96.4037 7.78264C96.0705 7.6649 95.7182 7.59318 95.4109 7.53062C95.11 7.46935 94.8521 7.41686 94.6977 7.33854C94.601 7.29018 94.4954 7.20663 94.5262 7.07033C94.579 6.74935 94.8736 6.6746 95.1857 6.6746C95.4969 6.6746 95.8037 6.78381 95.7404 7.23302H95.7354L95.7398 7.23741ZM83.4106 7.60676H85.2486C85.2486 7.08791 85.0507 6.85048 84.4967 6.85048C83.9427 6.85048 83.6085 7.04394 83.4106 7.60676Z" fill="#231916"/>
</g>
<defs>
<clipPath id="clip0_4148_62">
<rect width="106.359" height="28" fill="white" transform="translate(0.320801)"/>
</clipPath>
</defs>
</svg>
