<svg width="24" height="24" viewBox="0 0 24 24" fill="none" xmlns="http://www.w3.org/2000/svg">
<path fill-rule="evenodd" clip-rule="evenodd" d="M2.3999 12C2.3999 11.3373 2.93716 10.8 3.5999 10.8H20.3999C21.0626 10.8 21.5999 11.3373 21.5999 12C21.5999 12.6628 21.0626 13.2 20.3999 13.2H3.5999C2.93716 13.2 2.3999 12.6628 2.3999 12Z" fill="#4B5563"/>
<path fill-rule="evenodd" clip-rule="evenodd" d="M13.5517 5.15152C14.0203 4.68289 14.7801 4.68289 15.2487 5.15152L21.2487 11.1515C21.7174 11.6202 21.7174 12.3799 21.2487 12.8486L15.2487 18.8486C14.7801 19.3172 14.0203 19.3172 13.5517 18.8486C13.083 18.3799 13.083 17.6202 13.5517 17.1515L18.7031 12L13.5517 6.84858C13.083 6.37995 13.083 5.62015 13.5517 5.15152Z" fill="#4B5563"/>
</svg>
