<svg width="16" height="16" viewBox="0 0 16 16" fill="none" xmlns="http://www.w3.org/2000/svg">
<path fill-rule="evenodd" clip-rule="evenodd" d="M1.60001 7.99995C1.60001 7.55812 1.95818 7.19995 2.40001 7.19995H13.6C14.0418 7.19995 14.4 7.55812 14.4 7.99995C14.4 8.44178 14.0418 8.79995 13.6 8.79995H2.40001C1.95818 8.79995 1.60001 8.44178 1.60001 7.99995Z" fill="#2B3440"/>
<path fill-rule="evenodd" clip-rule="evenodd" d="M1.60001 3.99995C1.60001 3.55812 1.95818 3.19995 2.40001 3.19995H13.6C14.0418 3.19995 14.4 3.55812 14.4 3.99995C14.4 4.44178 14.0418 4.79995 13.6 4.79995H2.40001C1.95818 4.79995 1.60001 4.44178 1.60001 3.99995Z" fill="#2B3440"/>
<path fill-rule="evenodd" clip-rule="evenodd" d="M1.60001 12C1.60001 11.5581 1.95818 11.2 2.40001 11.2H13.6C14.0418 11.2 14.4 11.5581 14.4 12C14.4 12.4418 14.0418 12.8 13.6 12.8H2.40001C1.95818 12.8 1.60001 12.4418 1.60001 12Z" fill="#2B3440"/>
</svg>
