<svg width="24" height="24" viewBox="0 0 24 24" fill="none" xmlns="http://www.w3.org/2000/svg">
<path d="M7.28179 14.3703C7.37945 13.5617 7.71112 13.1089 8.33614 12.6447C9.23043 12.0161 10.3475 12.3717 10.3475 12.3717V10.2622C10.6191 10.2553 10.8908 10.2714 11.1594 10.3103V13.025C11.1594 13.025 10.0426 12.6694 9.14836 13.2984C8.52368 13.7622 8.19133 14.2153 8.094 15.024C8.09095 15.4631 8.17336 16.0371 8.55285 16.5335C8.45902 16.4853 8.36339 16.4305 8.26594 16.369C7.42999 15.8076 7.27772 14.9655 7.28179 14.3703ZM15.7719 6.3618C15.1567 5.68768 14.9241 5.00706 14.84 4.52893H15.6139C15.6139 4.52893 15.4596 5.78259 16.5841 7.01545L16.5997 7.03203C16.2966 6.84138 16.0187 6.61634 15.7719 6.3618ZM19.5 8.27301V10.9331C19.5 10.9331 18.5124 10.8944 17.7816 10.7085C16.7612 10.4485 16.1053 10.0497 16.1053 10.0497C16.1053 10.0497 15.6522 9.76525 15.6156 9.74542V15.2385C15.6156 15.5444 15.5318 16.3082 15.2764 16.9453C14.9431 17.7787 14.4286 18.3257 14.334 18.4375C14.334 18.4375 13.7083 19.177 12.6044 19.6749C11.6094 20.1241 10.7358 20.1127 10.4747 20.1241C10.4747 20.1241 8.96455 20.1839 7.60566 19.3008C7.3118 19.1062 7.0375 18.8857 6.78632 18.6423L6.7931 18.6472C8.15233 19.5303 9.66214 19.4705 9.66214 19.4705C9.92361 19.4591 10.7972 19.4705 11.7919 19.0213C12.8947 18.5233 13.5214 17.7839 13.5214 17.7839C13.615 17.672 14.1319 17.125 14.4639 16.2913C14.7186 15.6546 14.803 14.8904 14.803 14.5845V9.0921C14.8396 9.11225 15.2924 9.39666 15.2924 9.39666C15.2924 9.39666 15.9486 9.7958 16.969 10.0555C17.7002 10.2414 18.6874 10.2801 18.6874 10.2801V8.19565C19.0252 8.27138 19.3131 8.29186 19.5 8.27301Z" fill="#030712" fill-opacity="0.2"/>
<path d="M18.6878 8.19565V10.2794C18.6878 10.2794 17.7006 10.2408 16.9694 10.0549C15.9489 9.79482 15.2927 9.39601 15.2927 9.39601C15.2927 9.39601 14.84 9.1116 14.8034 9.09145V14.5852C14.8034 14.891 14.7196 15.6552 14.4642 16.2919C14.1309 17.1257 13.6164 17.6727 13.5218 17.7845C13.5218 17.7845 12.8958 18.524 11.7922 19.0219C10.7976 19.4711 9.92396 19.4597 9.66249 19.4711C9.66249 19.4711 8.15268 19.5309 6.79345 18.6478L6.78666 18.6429C6.64316 18.504 6.50807 18.3572 6.38208 18.2035C5.94833 17.6746 5.68245 17.0493 5.61565 16.8708C5.61553 16.8701 5.61553 16.8693 5.61565 16.8686C5.50814 16.5585 5.28228 15.8138 5.31314 15.0926C5.36774 13.8201 5.81539 13.039 5.93375 12.8433C6.24721 12.3097 6.6549 11.8323 7.13868 11.4323C7.56559 11.0872 8.04947 10.8126 8.57049 10.6198C9.13372 10.3934 9.73685 10.272 10.3475 10.2622V12.3717C10.3475 12.3717 9.23044 12.0174 8.33649 12.6447C7.71147 13.1089 7.3798 13.5617 7.28213 14.3703C7.27806 14.9655 7.43033 15.8076 8.26561 16.3693C8.36305 16.4311 8.45869 16.4859 8.55251 16.5338C8.69844 16.7235 8.87604 16.8887 9.07817 17.023C9.89411 17.5394 10.5778 17.5755 11.4521 17.2401C12.035 17.0158 12.4739 16.5104 12.6774 15.9503C12.8052 15.6006 12.8035 15.2486 12.8035 14.8845V4.52893H14.8383C14.9224 5.00706 15.155 5.68768 15.7702 6.3618C16.017 6.61634 16.295 6.84138 16.598 7.03203C16.6876 7.12466 17.1454 7.58263 17.7331 7.86379C18.037 8.00912 18.3573 8.12047 18.6878 8.19565V8.19565Z" fill="black"/>
<path d="M4.80579 16.2231V16.2248L4.85628 16.3616C4.85048 16.3457 4.83171 16.2973 4.80579 16.2231Z" fill="#030712" fill-opacity="0.2"/>
<path d="M8.57051 10.6198C8.0495 10.8126 7.56561 11.0872 7.1387 11.4324C6.65477 11.8332 6.24718 12.3117 5.93411 12.8463C5.81576 13.0413 5.3681 13.823 5.3135 15.0955C5.28264 15.8168 5.5085 16.5614 5.61601 16.8715C5.61589 16.8723 5.61589 16.873 5.61601 16.8738C5.68383 17.0506 5.94869 17.676 6.38244 18.2064C6.50844 18.3602 6.64352 18.5069 6.78702 18.6459C6.32723 18.3411 5.91716 17.9726 5.57023 17.5524C5.14021 17.0282 4.87501 16.4093 4.80583 16.2266C4.80574 16.2253 4.80574 16.224 4.80583 16.2227V16.2205C4.69798 15.9107 4.47144 15.1657 4.50298 14.4435C4.55758 13.171 5.00523 12.3899 5.12359 12.1942C5.43657 11.6596 5.84417 11.1812 6.32818 10.7803C6.755 10.4351 7.23891 10.1605 7.75999 9.96776C8.08501 9.83851 8.42361 9.74316 8.76992 9.68335C9.29183 9.59603 9.82487 9.58847 10.3492 9.66093V10.2622C9.738 10.2718 9.13428 10.3932 8.57051 10.6198Z" fill="#030712" fill-opacity="0.2"/>
<path d="M14.84 4.52897H12.8052V14.8849C12.8052 15.2489 12.8052 15.6 12.679 15.9507C12.4735 16.5104 12.0364 17.0158 11.4538 17.2401C10.5791 17.5768 9.89546 17.5395 9.07985 17.023C8.87738 16.8894 8.69932 16.7246 8.55284 16.5354C9.24772 16.8907 9.86968 16.8845 10.6402 16.5881C11.2225 16.3638 11.6603 15.8584 11.8651 15.2984C11.9933 14.9486 11.9916 14.5966 11.9916 14.2329V3.875H14.8013C14.8013 3.875 14.7698 4.13243 14.84 4.52897ZM18.6877 7.6194V8.19569C18.3579 8.12039 18.0381 8.00904 17.7348 7.86383C17.1471 7.58267 16.6893 7.1247 16.5997 7.03206C16.7036 7.09744 16.8114 7.15691 16.9226 7.21018C17.6371 7.55212 18.3408 7.65418 18.6877 7.6194Z" fill="#030712" fill-opacity="0.2"/>
</svg>
